<svg xmlns="http://www.w3.org/2000/svg" xmlns:xlink="http://www.w3.org/1999/xlink" viewBox="0 0 48 48"><defs><linearGradient id="a" x1="20.606" y1="9.473" x2="29.73" y2="25.276" gradientUnits="userSpaceOnUse"><stop offset="0" stop-color="#0572c0"/><stop offset="0.881" stop-color="#0364b8"/></linearGradient><linearGradient id="b" x1="8.525" y1="16.516" x2="17.848" y2="32.665" gradientUnits="userSpaceOnUse"><stop offset="0" stop-color="#1885d9"/><stop offset="0.892" stop-color="#107ad5"/></linearGradient><linearGradient id="c" x1="34.458" y1="19.883" x2="43.466" y2="35.485" gradientUnits="userSpaceOnUse"><stop offset="0" stop-color="#138ede"/><stop offset="0.935" stop-color="#0d7ad5"/></linearGradient><linearGradient id="d" x1="19.119" y1="24.805" x2="30.526" y2="44.563" gradientUnits="userSpaceOnUse"><stop offset="0.104" stop-color="#29a9ea"/><stop offset="0.793" stop-color="#1c94e3"/></linearGradient></defs><title>OneDrive_48x</title><path d="M28.2,26s8.143-5.688,9.459-5.688c.212,0,.422.009.63.023A14.376,14.376,0,0,0,12.353,16c.05,0,.1,0,.147,0C14.717,16,28.2,26,28.2,26Z" fill="url(#a)"/><path d="M18.542,17.712v0A11.443,11.443,0,0,0,12.5,16c-.049,0-.1,0-.147,0a11.495,11.495,0,0,0-9.286,18.07L19,32l9.2-8.5Z" fill="url(#b)"/><path d="M38.287,20.335c-.208-.014-.418-.023-.63-.023a9.313,9.313,0,0,0-3.7.764h0L28.2,23.5,34,32l11.883,2.089a9.345,9.345,0,0,0-7.6-13.754Z" fill="url(#c)"/><path d="M37.723,29.2l-2.386-1.43L29.867,24.5l-1.669-1-4.4,1.852L15.368,28.9l-3.786,1.593L3.067,34.073A11.482,11.482,0,0,0,12.5,39H37.657a9.341,9.341,0,0,0,8.226-4.91Z" fill="url(#d)"/><rect width="48" height="48" fill="none"/><rect width="48" height="48" fill="none"/></svg>